# xmcd
#
# Track frame offsets: 
#        150
#        19554
#        37106
#        55222
#        74611
#        93807
#        112403
#        132065
#        154308
#        173895
#        192882
#        211468
#
# Disc length: 3110 seconds
#
# Revision: 2
# Processed by: cddbd v1.5.2PL0 Copyright (c) Steve Scherf et al.
# Submitted via: ExactAudioCopy v0.99pb5
#
DISCID=ac0c240c
DTITLE=張丹丹 - 聲色傾城
DYEAR=2005
DGENRE=Chinese
TTITLE0=白月光
TTITLE1=我曾愛過一個男孩
TTITLE2=當你孤單你會想起誰
TTITLE3=美麗心情
TTITLE4=江南
TTITLE5=值得一輩子去愛
TTITLE6=小薇
TTITLE7=我們的愛
TTITLE8=翅膀
TTITLE9=飛鳥
TTITLE10=十年
TTITLE11=永夜
EXTD=
EXTT0=
EXTT1=
EXTT2=
EXTT3=
EXTT4=
EXTT5=
EXTT6=
EXTT7=
EXTT8=
EXTT9=
EXTT10=
EXTT11=
PLAYORDER=
